<?xml version="1.0" encoding="UTF-8" standalone="no"?>
<!DOCTYPE svg PUBLIC "-//W3C//DTD SVG 20010904//EN"
              "http://www.w3.org/TR/2001/REC-SVG-20010904/DTD/svg10.dtd">

<svg xmlns="http://www.w3.org/2000/svg"
     width="5.06944in" height="2.11111in"
     viewBox="0 0 365 152">
  <path id="Selección"
        fill="black" stroke="black" stroke-width="1"
        d="M 277.60,20.00
           C 275.93,6.53 288.56,-2.30 301.00,1.98
             306.85,3.99 318.91,15.88 324.00,20.63
             342.27,37.69 364.99,56.72 364.49,84.00
             364.39,89.31 362.35,105.36 360.69,110.00
             357.63,118.55 356.19,123.16 350.60,130.60
             326.65,162.50 284.42,146.23 253.00,138.37
             253.00,138.37 222.00,130.87 222.00,130.87
             216.17,129.42 207.79,127.22 203.19,123.29
             198.54,119.32 197.52,113.84 198.13,108.00
             198.32,106.12 199.43,103.02 198.72,101.39
             197.82,99.30 193.97,97.99 192.04,96.88
             188.86,95.05 187.05,93.38 185.53,89.98
             181.50,80.95 186.68,75.33 186.66,72.00
             186.66,72.00 184.00,64.00 184.00,64.00
             181.86,66.21 178.38,70.84 178.34,74.00
             178.30,77.19 183.87,83.76 179.00,92.96
             174.95,100.61 166.89,99.64 166.05,104.21
             165.64,106.47 170.44,117.93 161.81,125.29
             157.21,129.22 148.83,131.42 143.00,132.87
             143.00,132.87 112.00,140.37 112.00,140.37
             80.59,148.23 38.35,164.50 14.40,132.60
             8.81,125.16 7.37,120.55 4.31,112.00
             2.65,107.36 0.61,91.31 0.51,86.00
             0.01,58.72 22.73,39.69 41.00,22.63
             46.09,17.88 58.15,5.99 64.00,3.98
             76.44,-0.30 89.07,8.53 87.40,22.00
             86.51,29.21 81.83,33.31 78.00,39.00
             78.00,39.00 120.00,28.13 120.00,28.13
             126.56,26.49 142.13,22.00 148.00,22.03
             159.89,22.09 166.66,31.74 165.00,43.00
             173.01,42.19 179.03,46.08 181.00,54.00
             186.74,46.62 188.83,39.87 200.00,41.00
             198.34,29.74 205.11,20.09 217.00,20.03
             222.87,20.00 238.44,24.49 245.00,26.13
             245.00,26.13 287.00,37.00 287.00,37.00
             283.17,31.31 278.49,27.21 277.60,20.00 Z
           M 300.42,38.00
           C 302.65,40.75 307.50,45.98 302.71,48.96
             299.53,50.95 287.88,47.10 284.00,46.13
             284.00,46.13 232.00,33.37 232.00,33.37
             225.67,31.79 211.10,25.91 209.63,36.58
             208.83,42.42 214.50,44.46 219.00,45.62
             219.00,45.62 255.00,54.37 255.00,54.37
             258.50,55.25 269.94,56.96 267.60,62.95
             265.67,67.56 256.58,64.02 253.00,62.95
             253.00,62.95 209.00,52.37 209.00,52.37
             203.95,51.11 196.49,48.20 193.18,54.13
             192.36,55.59 192.12,57.36 192.47,58.98
             193.75,64.83 201.10,65.95 206.00,67.12
             206.00,67.12 246.00,76.87 246.00,76.87
             249.62,77.78 264.37,79.93 261.83,85.87
             259.62,91.06 249.03,86.88 245.00,85.87
             245.00,85.87 209.00,77.13 209.00,77.13
             205.12,76.21 198.68,74.73 195.74,78.31
             191.46,83.52 196.10,88.38 201.00,90.29
             201.00,90.29 242.00,100.63 242.00,100.63
             245.14,101.41 255.73,103.75 257.85,105.14
             261.85,107.75 260.68,112.36 255.96,112.77
             253.09,113.01 239.70,109.30 236.00,108.37
             236.00,108.37 217.00,104.18 217.00,104.18
             206.84,103.27 206.61,112.87 210.31,116.03
             214.06,119.23 234.06,123.39 240.00,124.87
             240.00,124.87 283.00,135.37 283.00,135.37
             297.74,139.01 312.24,143.01 327.00,136.66
             344.55,129.12 350.85,113.70 353.42,96.00
             355.03,84.90 355.51,76.64 350.83,66.00
             345.76,54.50 333.84,43.83 325.00,35.00
             325.00,35.00 306.00,17.43 306.00,17.43
             301.21,13.33 298.66,10.33 292.06,11.60
             280.77,18.44 295.29,31.65 300.42,38.00 Z
           M 50.00,27.72
           C 36.73,39.41 15.46,58.36 11.55,76.00
             9.66,84.28 10.38,89.77 11.55,98.00
             14.36,117.16 22.48,135.13 43.00,140.33
             58.86,144.36 68.86,140.47 84.00,136.88
             84.00,136.88 126.00,126.63 126.00,126.63
             131.77,125.18 151.03,121.15 154.69,118.03
             158.39,114.87 158.16,105.27 148.00,106.18
             148.00,106.18 129.00,110.37 129.00,110.37
             125.30,111.30 111.91,115.01 109.04,114.77
             104.32,114.36 103.15,109.75 107.15,107.14
             109.27,105.75 119.86,103.41 123.00,102.63
             123.00,102.63 160.00,93.57 160.00,93.57
             165.04,92.13 172.19,89.82 170.55,83.02
             169.01,76.62 161.84,77.80 157.00,78.89
             157.00,78.89 117.00,88.66 117.00,88.66
             113.39,89.53 106.37,92.29 103.41,88.66
             102.86,87.63 102.64,86.45 103.41,85.22
             104.65,81.74 113.52,80.24 117.00,79.37
             117.00,79.37 157.00,69.58 157.00,69.58
             162.79,68.29 174.40,66.53 172.53,58.02
             170.90,50.59 163.18,52.58 158.00,53.87
             158.00,53.87 114.00,64.63 114.00,64.63
             111.33,65.30 103.31,67.59 101.04,67.27
             98.44,66.91 96.36,64.85 97.40,62.12
             98.78,58.48 105.61,57.47 109.00,56.63
             109.00,56.63 143.00,48.35 143.00,48.35
             148.17,47.16 157.18,45.28 155.19,37.85
             152.56,28.00 138.64,33.97 132.00,35.63
             132.00,35.63 80.00,48.37 80.00,48.37
             76.00,49.37 64.68,53.44 61.55,50.40
             58.41,47.34 61.76,43.51 63.76,41.00
             67.60,36.17 78.36,25.24 77.17,19.00
             76.18,13.77 72.60,12.89 68.00,13.43
             60.95,16.17 55.59,22.79 50.00,27.72 Z
           M 182.00,62.00
           C 182.00,62.00 183.00,63.00 183.00,63.00
             183.00,63.00 183.00,62.00 183.00,62.00
             183.00,62.00 182.00,62.00 182.00,62.00 Z" />

</svg>
